Simulation
nRows=24
nColumns=15
endheader
time  TH_x TH_y TH_z SC_y  SC_z  SC_x  AC_y  AC_z  AC_x  GH_y  GH_z  GH_yy  EL_x  PS_y
2.0  0.000000  0.000000  0.000000  -35.815958578917666  -0.9539111549515491  -1.9074117199027367  72.39307782855016  32.17317596925519  44.20773226756918  33.15394334394401  25.13150667268155  -22.13855280168311  31.327414190741088  0.000000
2.04  0.000000  0.000000  0.000000  -43.051071115107554  3.9486128836872907  -11.961283746823087  71.47687074606714  40.91345295564908  51.26414424091466  11.00032435811128  19.29686660923057  -6.735364023321093  32.18551753055139  0.000000
2.08  0.000000  0.000000  0.000000  -40.185926833927326  -7.161276410616904  -10.353633788803105  65.54648759032911  42.60188476048587  41.36291496277226  -12.100745691314021  13.703784867970615  7.821917758127558  30.94552529471234  0.000000
2.12  0.000000  0.000000  0.000000  -30.11788549790277  7.635657801203603  12.764805785394566  86.15487674700385  9.843305623954139  45.12479068570073  -45.90306709116719  49.7615348332745  14.00503913244513  34.69205899800977  0.000000
2.16  0.000000  0.000000  0.000000  -51.415513713679616  -0.8830024214395177  19.619216710812513  56.92844633849208  14.529706483655273  33.81372984452494  -16.41606287296368  21.822074826260938  22.354763736794126  67.7957855595993  0.000000
2.2  0.000000  0.000000  0.000000  -49.12055356678829  -18.48801809043113  13.660039991925965  18.661761340215037  40.434100071266435  1.2764299138930166  24.647100989233557  -24.148858440024853  -1.3158719883670682  83.75259680913778  0.000000
2.24  0.000000  0.000000  0.000000  -27.54799926052511  -15.108393758112891  24.24507440789017  22.789940311676652  32.21118906045805  -28.651522314964424  69.39990108762977  37.248530763168006  -54.29718814597333  45.73405673301198  0.000000
2.2800000000000002  0.000000  0.000000  0.000000  -26.103143937041242  -13.70745284377319  46.65264401425127  26.675729456919985  19.27192800693452  -51.54664846564866  104.08320645995258  63.05905794010307  -79.71931035626682  21.81178351779023  0.000000
2.32  0.000000  0.000000  0.000000  -17.672301356235348  -15.54783422946632  50.6497845680936  31.602074894335978  11.98644302899976  -54.52839183266738  93.5702640167202  63.584872123079215  -69.88019407247798  23.518754091264597  0.000000
2.36  0.000000  0.000000  0.000000  -17.759582295498696  -17.475687071720763  35.83506729746771  26.5689659378374  23.859156636273948  -45.50028136140399  103.18571081010334  72.14823611046242  -71.06869476303623  23.863282571527204  0.000000
2.4  0.000000  0.000000  0.000000  -17.810537215084164  -16.623871854766183  34.246542763011966  27.125704409162992  21.629576625745596  -40.63655525243544  105.66822706717997  67.2408987801582  -70.4896076437877  24.052911595320385  0.000000
2.44  0.000000  0.000000  0.000000  -16.33972994180733  -15.66975078978747  43.50045859578496  28.36151129015161  14.49038628953912  -48.34732060617949  107.23708279633196  63.343578693723494  -68.29167063257356  23.09522479355751  0.000000
2.48  0.000000  0.000000  0.000000  -16.0444370484478  -16.267615705567444  45.295671934649924  29.420705633059548  14.157494208885655  -50.11930725322864  109.3395482935553  62.07492892536044  -69.50312288401432  22.98599877220308  0.000000
2.52  0.000000  0.000000  0.000000  -16.11753468185281  -16.388007019974534  41.47260350523762  28.438062486588866  16.529879638208655  -47.56921234257068  110.6607808158142  62.983445096087856  -69.54291891267694  22.773073668462114  0.000000
2.56  0.000000  0.000000  0.000000  -16.187181402388582  -16.39538021923196  40.80404272061463  28.28366367483235  16.989710792403226  -46.67501090617597  111.53438837821857  62.66437975903877  -69.47031056511548  22.874674962649532  0.000000
2.6  0.000000  0.000000  0.000000  -16.059358313697388  -16.40279111851274  40.85867984893152  28.32769832430119  16.690527542564897  -46.840985827564005  112.05478905053407  62.61614212756384  -68.74383851477303  22.667247165094256  0.000000
2.64  0.000000  0.000000  0.000000  -15.838687887651862  -16.51669698336003  41.005288979337855  28.36988331361147  16.734936953367963  -46.99032102942131  113.03500667218178  62.54400230070586  -67.99512154394658  22.57902913859498  0.000000
2.68  0.000000  0.000000  0.000000  -15.597480400738968  -16.596286727380228  41.0423990518594  28.451410280056585  16.515260889980993  -47.2007333419219  113.7084635759869  62.572592674314635  -66.91932800817253  22.442072165091272  0.000000
2.72  0.000000  0.000000  0.000000  -15.331451132830795  -16.672603999740826  41.180507692836684  28.46135958096281  16.411761281215476  -47.27858331790546  114.48523808434695  62.3605044497219  -65.94104548911538  22.429072846558384  0.000000
2.7600000000000002  0.000000  0.000000  0.000000  -15.07188309791582  -16.740592038206483  41.149467262653594  28.476019156673306  16.302214090395182  -47.48996474111063  114.89780666850426  62.39293156845909  -65.14951502850465  22.402726242707043  0.000000
2.8000000000000003  0.000000  0.000000  0.000000  -14.942280912764845  -16.79095064568067  41.23679008221339  28.52254439731931  16.19611482760099  -47.406945722181995  115.18233598394124  62.02831767049604  -64.76512851011361  22.497943506627646  0.000000
2.84  0.000000  0.000000  0.000000  -14.851484674618993  -16.79788060056732  41.17631311544111  28.47831187888575  16.21865564984966  -47.58792218177575  115.05137158752696  62.05073983527908  -64.68249007559153  22.655497404949852  0.000000
2.88  0.000000  0.000000  0.000000  -15.048478999513422  -16.743245702449144  41.340987855771  28.548710820412143  16.141406076607684  -47.429847323487074  114.79466575655412  61.63519039842334  -65.13357171024917  22.807562580206223  0.000000
2.92  0.000000  0.000000  0.000000  -15.313370858716448  -16.652179874228242  41.28673440988521  28.48532013602526  16.299299063737593  -47.496916579726616  114.18106856613679  61.728985500103995  -65.8272806285813  22.882854519090927  0.000000
